<svg width="92" height="31" viewBox="0 0 92 31" fill="none" xmlns="http://www.w3.org/2000/svg">
<path d="M87.2 1H84.8V4.10315L82.6057 1.9088L80.9086 3.60586L83.1027 5.8H80V8.2H83.1025L80.9085 10.3941L82.6055 12.0911L84.8 9.89666V13H87.2V9.89727L89.3939 12.0911L91.0909 10.3941L88.8969 8.2H92V5.8H88.8967L91.0908 3.60585L89.3938 1.90879L87.2 4.10254V1Z" fill="#00966B"/>
<path d="M1.64347 6.09091V25H5.52131V12.6463H5.67827L10.5717 24.9077H13.2124L18.1058 12.6925H18.2628V25H22.1406V6.09091H17.2102L12.0028 18.7955H11.7812L6.57386 6.09091H1.64347ZM29.4047 25.2678C31.5005 25.2678 32.8578 24.3537 33.5502 23.0334H33.661V25H37.3912V15.4347C37.3912 12.0554 34.5289 10.6335 31.3713 10.6335C27.9735 10.6335 25.7392 12.2585 25.1944 14.8438L28.8322 15.1392C29.1 14.1974 29.9402 13.505 31.3528 13.505C32.6916 13.505 33.4579 14.179 33.4579 15.3423V15.3977C33.4579 16.3118 32.4885 16.4318 30.0233 16.6719C27.2164 16.9304 24.6958 17.8722 24.6958 21.0391C24.6958 23.8459 26.6994 25.2678 29.4047 25.2678ZM30.5311 22.5533C29.3216 22.5533 28.4537 21.9901 28.4537 20.9098C28.4537 19.8018 29.3677 19.2571 30.7527 19.0632C31.6113 18.9432 33.0147 18.7401 33.4856 18.4261V19.9311C33.4856 21.4176 32.2576 22.5533 30.5311 22.5533ZM40.4426 25H44.3759V20.4943L45.4377 19.2848L49.3063 25H53.9135L48.383 16.9581L53.6458 10.8182H49.1309L44.5882 16.201H44.3759V6.09091H40.4426V25ZM61.4545 25.277C64.9631 25.277 67.3267 23.5689 67.8807 20.9375L64.2429 20.6974C63.8459 21.7777 62.8303 22.3409 61.5192 22.3409C59.5526 22.3409 58.3061 21.0391 58.3061 18.9247V18.9155H67.9638V17.8352C67.9638 13.0156 65.0462 10.6335 61.2976 10.6335C57.1243 10.6335 54.419 13.5973 54.419 17.9737C54.419 22.4702 57.0874 25.277 61.4545 25.277ZM58.3061 16.478C58.3892 14.8622 59.6172 13.5696 61.3622 13.5696C63.0703 13.5696 64.2521 14.7884 64.2614 16.478H58.3061ZM70.5305 25H74.4638V16.9766C74.4638 15.2315 75.7379 14.0312 77.4737 14.0312C78.0185 14.0312 78.7663 14.1236 79.1357 14.2436V10.7536C78.7848 10.6705 78.2955 10.6151 77.8984 10.6151C76.3104 10.6151 75.0085 11.5384 74.4915 13.2926H74.3438V10.8182H70.5305V25Z" fill="white"/>
</svg>
